<svg width="209" height="211" viewBox="0 0 209 211" fill="none" xmlns="http://www.w3.org/2000/svg">
<path d="M129.181 19.4514H129.84C131.818 19.4514 133.136 18.1327 133.136 16.1545C133.136 14.1764 131.818 12.8577 129.84 12.8577H129.181C127.204 12.8577 125.886 14.1764 125.886 16.1545C125.886 17.803 127.204 19.4514 129.181 19.4514Z" fill="black"/>
<path d="M188.17 169.459H162.465V145.722H173.67C178.283 145.722 181.908 142.095 181.908 137.48V70.2234C181.908 65.6078 178.283 61.9812 173.67 61.9812H161.147V48.1344H181.249C183.226 48.1344 184.545 46.8156 184.545 44.8375V9.89062C184.545 4.61562 180.261 0 174.658 0H132.477C121.602 0 113.034 8.57188 113.034 19.4516V44.8375C113.034 46.8156 114.352 48.1344 116.329 48.1344H136.431V61.9812H123.909C119.295 61.9812 115.67 65.6078 115.67 70.2234V108.137L83.7042 120.336C81.7269 119.347 79.4201 118.688 76.7837 118.688C72.8292 118.688 69.2042 120.336 66.5679 122.973H3.29544C1.31818 122.973 0 124.292 0 126.27C0 135.172 7.24996 142.425 16.1476 142.425H66.5679C69.2042 145.062 72.8292 146.711 76.7837 146.711C82.386 146.711 86.9996 143.414 89.3064 138.798L115.34 128.908V137.48C115.34 142.095 118.965 145.722 123.579 145.722H134.454V169.459H108.749C97.2155 169.459 87.9882 178.691 87.9882 190.23C87.9882 201.769 97.8745 211 109.079 211H188.17C199.704 211 208.931 201.769 208.931 190.23C208.931 178.691 199.704 169.459 188.17 169.459ZM132.477 6.59375H141.704V25.3859H119.624V19.4516C119.624 12.1984 125.556 6.59375 132.477 6.59375ZM119.624 31.9797H144.999C146.977 31.9797 148.295 30.6609 148.295 28.6828V6.59375H174.329C175.976 6.59375 177.624 7.9125 177.624 9.89062V41.5406H157.522H139.727H119.624V31.9797ZM154.227 48.1344V61.9812H143.022V48.1344H154.227ZM133.136 108.137C133.795 110.116 134.783 112.094 136.102 113.742L90.9541 130.886C90.6246 128.578 89.9655 126.6 88.9769 124.952L133.136 108.137ZM139.068 103.852C139.068 98.5766 143.352 94.2906 148.624 94.2906C153.897 94.2906 158.181 98.5766 158.181 103.852C158.181 109.127 153.897 113.413 148.624 113.413C143.352 113.413 139.068 109.127 139.068 103.852ZM16.1476 135.502C11.8636 135.502 8.56814 132.864 7.24997 129.238H63.2724C62.6133 131.545 62.6133 133.194 63.2724 135.502H16.1476ZM76.7837 140.117C72.4997 140.117 69.2042 136.82 69.2042 132.534C69.2042 128.248 72.4997 124.952 76.7837 124.952C81.0678 124.952 84.3632 128.248 84.3632 132.534C84.3632 136.491 81.0678 140.117 76.7837 140.117ZM122.261 137.48V126.27L142.363 118.688C144.34 119.677 146.318 120.006 148.624 120.006C157.522 120.006 164.772 112.753 164.772 103.852C164.772 94.95 157.522 87.6969 148.624 87.6969C140.386 87.6969 133.795 93.6312 132.806 101.544L122.261 105.5V70.2234C122.261 69.2344 122.92 68.575 123.909 68.575H173.67C174.658 68.575 175.317 69.2344 175.317 70.2234V137.48C175.317 138.469 174.658 139.128 173.67 139.128H123.909C122.92 139.128 122.261 138.469 122.261 137.48ZM141.374 169.459V145.722H155.874V169.459H141.374ZM188.17 204.406H109.079C101.17 204.406 94.9086 198.142 94.9086 190.23C94.9086 182.317 101.17 176.053 109.079 176.053H188.17C196.079 176.053 202.34 182.317 202.34 190.23C202.34 198.142 196.079 204.406 188.17 204.406Z" fill="black"/>
<path d="M115.011 179.68C109.079 179.68 104.465 184.295 104.465 190.23C104.465 196.164 109.079 200.78 115.011 200.78C120.943 200.78 125.556 196.164 125.556 190.23C125.556 184.295 120.613 179.68 115.011 179.68ZM115.011 194.186C112.704 194.186 111.056 192.537 111.056 190.23C111.056 187.922 112.704 186.273 115.011 186.273C117.318 186.273 118.965 187.922 118.965 190.23C118.965 192.537 116.988 194.186 115.011 194.186Z" fill="black"/>
<path d="M148.625 179.68C142.693 179.68 138.079 184.295 138.079 190.23C138.079 196.164 142.693 200.78 148.625 200.78C154.556 200.78 159.17 196.164 159.17 190.23C159.17 184.295 154.556 179.68 148.625 179.68ZM148.625 194.186C146.318 194.186 144.67 192.537 144.67 190.23C144.67 187.922 146.318 186.273 148.625 186.273C150.931 186.273 152.579 187.922 152.579 190.23C152.579 192.537 150.931 194.186 148.625 194.186Z" fill="black"/>
<path d="M182.567 179.68C176.636 179.68 172.022 184.295 172.022 190.23C172.022 196.164 176.636 200.78 182.567 200.78C188.499 200.78 193.113 196.164 193.113 190.23C193.113 184.295 188.499 179.68 182.567 179.68ZM182.567 194.186C180.261 194.186 178.613 192.537 178.613 190.23C178.613 187.922 180.261 186.273 182.567 186.273C184.874 186.273 186.522 187.922 186.522 190.23C186.522 192.537 184.545 194.186 182.567 194.186Z" fill="black"/>
<path d="M27.0967 79.0904V103.765C20.8657 106.103 16.1925 112.077 16.1925 119.09C16.1925 120.648 17.231 121.687 18.7887 121.687H51.761C53.3188 121.687 54.3572 120.648 54.3572 119.09C54.3572 112.077 49.684 105.843 43.453 103.765V79.0904C53.0591 75.7138 59.8094 66.623 59.8094 55.9737V32.5974C59.8094 31.0389 58.7709 30 57.2131 30H13.5962C12.0385 30 11 31.0389 11 32.5974V55.9737C11 66.623 17.7502 75.7138 27.0967 79.0904ZM48.9051 116.493H21.6446C22.9427 111.558 27.3563 107.921 32.5488 107.921H38.0009C43.453 108.181 47.8666 111.817 48.9051 116.493ZM38.2605 102.986H32.5488H32.2892V80.3891C33.3277 80.3891 34.1066 80.6488 35.1451 80.6488C36.1836 80.6488 37.222 80.6488 38.0009 80.3891V102.986H38.2605ZM54.6169 35.1947V46.8829C44.2319 40.909 42.9338 50.5193 36.7028 46.6232C27.8756 41.4284 25.0197 50.2595 19.308 46.6232C18.5291 46.1037 17.4906 45.5842 16.1925 45.3245V35.1947H54.6169ZM16.1925 50.779C26.3178 56.4932 27.8756 47.4024 34.1066 51.0387C43.1934 56.4932 45.53 47.4024 51.5014 51.0387C52.2803 51.5582 53.3187 52.0777 54.6169 52.3374V55.9737C54.6169 66.623 46.0493 75.1943 35.4047 75.1943C24.7601 75.1943 16.1925 66.623 16.1925 55.9737V50.779Z" fill="black"/>
</svg>
