<svg width="195" height="213" viewBox="0 0 195 213" fill="none" xmlns="http://www.w3.org/2000/svg">
<path d="M193.378 92.287L154.054 52.9386C152.432 51.316 150 51.316 148.378 52.9386L134.595 66.7309C132.568 68.7591 130.541 69.9761 128.108 71.193L119.189 68.7591C111.081 66.7309 102.568 67.1365 94.8649 69.9761C89.5946 72.0043 84.7297 74.8439 80.6757 78.9005C78.6487 78.0891 76.6216 77.6835 75 77.2778C69.3243 76.4665 64.0541 73.627 60 69.5704L46.2162 55.7782C45.4054 54.9669 44.5946 54.5613 43.3784 54.5613C42.1622 54.5613 41.3514 54.9669 40.5405 55.7782L1.21622 95.1266C-0.405405 96.7492 -0.405405 99.1831 1.21622 100.806L15 114.598C19.0541 118.654 21.8919 123.928 22.7027 129.607C23.5135 134.069 25.1351 138.531 27.1622 142.182L22.2973 147.862C17.4324 153.946 18.2432 162.871 24.3243 167.739C26.7568 169.767 30 170.984 33.2432 170.984C33.6487 170.984 34.0541 170.984 34.8649 170.984C35.2703 174.635 36.8919 178.286 40.1351 180.719C42.5676 182.748 45.8108 183.965 49.0541 183.965C49.4595 183.965 49.8649 183.965 50.6757 183.965C51.0811 187.616 52.7027 191.266 55.9459 193.7C58.3784 195.729 61.6216 196.946 64.8649 196.946C65.2703 196.946 65.6757 196.946 66.4865 196.946C66.8919 200.596 68.5135 203.842 71.7568 206.276C74.1892 208.304 77.4324 209.521 80.6757 209.521C83.9189 209.521 87.1622 208.304 89.5946 206.276L91.2162 207.898C94.0541 210.738 98.1081 212.36 101.757 212.36C105 212.36 108.243 211.143 111.081 208.71C113.514 206.276 115.135 203.436 115.541 200.191C116.351 200.191 117.162 200.596 117.973 200.596C121.622 200.596 125.27 198.974 127.703 196.54C129.324 194.917 130.541 193.295 130.946 191.266C133.378 192.889 136.216 193.7 139.054 193.7C142.703 193.7 146.351 192.483 148.784 189.644C151.622 186.804 152.838 183.153 152.838 179.502C152.838 179.502 152.838 179.502 153.243 179.502C156.486 179.502 159.73 178.286 162.568 175.852C165.405 173.418 167.027 169.767 167.027 165.71C167.027 162.059 165.811 158.003 162.973 155.569L158.919 151.512L163.378 147.05C168.649 141.777 172.297 134.881 173.514 127.579C174.324 121.9 177.162 116.626 181.216 112.57L195 98.7775C195 96.3435 195 93.9096 193.378 92.287ZM29.5946 161.654C27.1622 159.625 26.7568 155.975 28.7838 153.541L40.9459 138.937C42.1622 137.72 43.7838 136.909 45.4054 136.909C46.6216 136.909 48.2432 137.315 49.0541 138.126C51.4865 140.154 51.8919 143.805 49.8649 146.239L37.7027 160.842C36.0811 163.276 32.027 163.682 29.5946 161.654ZM45 174.229C42.5676 172.201 42.1622 168.55 44.1892 166.116L56.3514 151.512L62.8378 143.805C64.0541 142.588 65.6757 141.777 67.2973 141.777C68.5135 141.777 70.1351 142.182 70.946 142.994C72.1622 143.805 72.973 145.428 72.973 147.05C72.973 148.673 72.5676 150.295 71.7568 151.512L69.7297 153.946L53.5135 173.823C51.4865 175.852 47.4324 176.257 45 174.229ZM60.4054 187.21C59.1892 186.399 58.3784 184.776 58.3784 183.153C58.3784 181.531 58.7838 179.908 59.5946 178.691L75.8108 158.814C77.027 157.597 78.6487 156.786 80.2703 156.786C81.4865 156.786 83.1081 157.192 83.9189 158.003C85.1351 158.814 85.946 160.437 85.946 162.059C85.946 163.682 85.5405 165.305 84.7297 166.522L68.5135 186.399C66.8919 188.427 62.8378 188.833 60.4054 187.21ZM75.8108 199.785C74.5946 198.974 73.7838 197.351 73.7838 195.729C73.7838 194.106 74.1892 192.483 75 191.266L87.1622 176.663C88.3784 175.446 90 174.635 91.6216 174.635C92.8378 174.635 94.4595 175.04 95.2703 175.852C96.4865 176.663 97.2973 178.286 97.2973 179.908C97.2973 181.531 96.8919 183.153 96.0811 184.37L83.9189 198.974C82.2973 201.408 78.2432 201.813 75.8108 199.785ZM104.189 202.219C101.757 204.247 98.1081 203.842 95.6757 201.408L94.0541 199.785L101.351 190.455L104.595 193.7C105.811 194.917 106.216 196.54 106.216 198.163C106.216 199.38 105.405 201.002 104.189 202.219ZM156.081 168.955C153.649 170.984 150 170.578 147.568 168.144L105.811 126.768C104.189 125.145 101.757 125.145 100.135 126.768C98.5135 128.39 98.5135 130.824 100.135 132.447L141.892 174.229L142.297 174.635C144.73 177.069 144.73 180.719 142.297 183.153C139.865 185.587 136.216 185.587 133.784 183.153L117.973 167.333L91.6216 140.965C90 139.343 87.5676 139.343 85.946 140.965C84.3243 142.588 84.3243 145.022 85.946 146.645L112.297 173.012L121.216 181.936C122.432 183.153 122.838 184.37 122.838 185.993C122.838 187.616 122.027 189.238 121.216 190.049C118.784 192.483 115.135 192.483 112.703 190.049L105.405 182.748C105.811 181.531 105.811 180.314 105.811 178.691C105.405 175.04 103.784 171.795 100.541 169.361C98.5135 167.739 96.4865 166.927 94.0541 166.522C94.4595 164.899 94.8649 162.871 94.4595 161.248C94.0541 157.597 92.4324 154.352 89.1892 151.918C86.7568 149.89 83.9189 149.078 81.0811 148.673C81.0811 147.862 81.0811 147.05 81.0811 146.239C80.6757 142.588 79.0541 139.343 75.8108 136.909C73.3784 134.881 70.1351 133.664 66.8919 133.664C63.6487 133.664 60.4054 134.881 57.973 136.909C57.1622 134.881 55.9459 133.258 54.3243 131.635C51.8919 129.607 48.6487 128.39 45.4054 128.39C41.3514 128.39 37.2973 130.418 34.4595 133.664L32.8378 135.692C31.6216 133.258 31.2162 130.824 30.8108 128.39C29.5946 121.088 25.9459 114.192 20.6757 108.919L9.72973 97.9662L43.3784 64.2969L54.3243 75.2496C59.5946 80.5231 66.4865 84.1739 73.7838 85.3909L57.5676 100.4C55.1351 102.428 53.9189 105.674 53.9189 108.513C53.9189 111.758 55.1351 114.598 57.1622 117.032C60.8108 121.088 66.4865 121.9 71.3514 119.466L90.4054 109.73C93.2432 108.513 96.0811 107.702 99.3243 108.513C102.162 108.919 104.595 110.136 106.622 112.164L156.892 160.842C158.108 162.059 158.514 163.682 158.514 165.305C158.108 166.522 157.297 168.144 156.081 168.955ZM173.919 105.674C168.649 110.947 165 117.843 163.784 125.145C162.973 130.824 160.135 136.098 156.081 140.154L151.622 144.616L111.486 105.674C108.243 102.428 104.595 100.806 100.135 99.9944C95.2703 99.1831 90.4054 99.9944 85.946 102.023L66.8919 111.758C65.2703 112.57 63.6487 112.164 62.4324 110.947C61.6216 110.136 61.2162 109.324 61.6216 108.107C61.6216 106.891 62.027 106.079 62.8378 105.674L86.3513 84.1739C89.5946 80.9287 93.6487 78.4948 98.1081 76.8722C104.595 74.4383 111.081 74.4383 117.568 76.0609L126.486 78.4948C126.892 78.4948 126.892 78.4948 127.297 78.4948C128.514 79.3061 129.73 79.3061 130.946 78.4948C134.595 76.8722 137.838 74.4383 140.676 71.5987L151.622 60.6461L185.27 94.3153L173.919 105.674Z" fill="black"/>
<path d="M125.712 65.42V20.0788L134.722 11.1078L137.933 14.3042C138.637 15.0068 139.654 14.5283 139.868 13.5556L142.741 1.3944C142.954 0.421638 142.303 -0.169651 141.325 0.0433402L129.171 2.84242C128.196 3.057 127.685 4.09812 128.39 4.80067L131.286 7.684L84.8591 53.7743L79.434 48.289L57.0811 70.9884L58.6421 75.7618L81.2249 80.8611L90.3309 75.7618L107.502 68.8997L125.712 73.2121V65.42Z" fill="black"/>
</svg>
