<svg width="198" height="211" viewBox="0 0 198 211" fill="none" xmlns="http://www.w3.org/2000/svg">
<path d="M135.792 185.891H128.597V193.327L19.5324 193.255V18.1401H127.806V29.1319H135V18.1401H146.008V10.9559H135V0H127.806V10.9559H19.5324V0H12.3382V10.9559H0V18.1401H12.3382V193.255L0 193.219V200.403L12.3382 200.439V211H19.5324V200.439L128.597 200.511V211H135.792V200.511L146.008 200.547V193.363L135.792 193.327V185.891Z" fill="black"/>
<path d="M135 36.4236H127.806V47.3436H135V36.4236Z" fill="black"/>
<path d="M134.533 53.3425C128.629 53.1055 122.739 54.0614 117.214 56.1529C111.689 58.2444 106.644 61.4284 102.382 65.514C98.119 69.5996 94.7264 74.5026 92.4073 79.9292C90.0881 85.3558 88.8902 91.1942 88.8853 97.0943C88.9007 104.925 91.005 112.61 94.9817 119.359C98.9584 126.108 104.664 131.677 111.511 135.494V142.858C111.511 146.977 113.147 150.927 116.06 153.843C118.974 156.759 122.926 158.402 127.051 158.411H138.202C142.327 158.402 146.279 156.759 149.192 153.843C152.106 150.927 153.742 146.977 153.742 142.858V135.494C160.794 131.618 166.646 125.885 170.661 118.918C174.676 111.95 176.699 104.017 176.511 95.9807C176.089 84.9294 171.552 74.4332 163.787 66.5469C156.023 58.6606 145.591 53.9518 134.533 53.3425ZM148.921 130.106C148.309 130.397 147.792 130.855 147.429 131.427C147.066 131.999 146.873 132.662 146.871 133.339V142.894C146.876 143.991 146.663 145.079 146.246 146.094C145.829 147.109 145.215 148.032 144.439 148.81C143.664 149.587 142.742 150.204 141.728 150.625C140.713 151.046 139.625 151.263 138.526 151.263H136.547V111.75L140.936 110.241C142.001 112.547 143.848 114.403 146.149 115.481C148.451 116.56 151.06 116.793 153.517 116.138C155.974 115.483 158.12 113.983 159.577 111.902C161.035 109.822 161.709 107.294 161.483 104.765C161.256 102.236 160.142 99.8681 158.338 98.0791C156.533 96.29 154.154 95.1947 151.62 94.9862C149.086 94.7777 146.56 95.4695 144.487 96.9395C142.413 98.4095 140.926 100.563 140.288 103.021L133.094 105.536L125.9 103.021C125.239 100.626 123.757 98.5381 121.711 97.1233C119.666 95.7085 117.187 95.0565 114.709 95.2812C112.231 95.5059 109.911 96.5931 108.154 98.3527C106.398 100.112 105.316 102.432 105.098 104.908C104.88 107.383 105.541 109.856 106.964 111.894C108.387 113.933 110.481 115.407 112.882 116.059C115.283 116.712 117.837 116.501 120.098 115.464C122.36 114.427 124.184 112.629 125.252 110.385L129.641 111.894V151.407H127.662C126.498 151.493 125.328 151.334 124.229 150.94C123.13 150.546 122.125 149.926 121.281 149.12C120.437 148.314 119.771 147.341 119.328 146.262C118.884 145.183 118.672 144.023 118.705 142.858V133.303C118.707 132.629 118.519 131.969 118.163 131.398C117.806 130.826 117.296 130.366 116.691 130.07C110.488 127.064 105.253 122.38 101.584 116.55C97.9148 110.721 95.9578 103.98 95.9356 97.0943C95.9403 92.2753 96.8978 87.5047 98.7533 83.0562C100.609 78.6076 103.326 74.5687 106.748 71.1712C110.17 67.7737 114.231 65.0845 118.696 63.2578C123.162 61.4312 127.945 60.503 132.77 60.5267H134.281C143.534 61.0289 152.267 64.9589 158.773 71.5486C165.279 78.1384 169.09 86.914 169.461 96.1603C169.638 103.203 167.777 110.148 164.102 116.162C160.428 122.177 155.094 127.005 148.742 130.07L148.921 130.106ZM147.051 105.859C147.051 105.149 147.262 104.454 147.657 103.863C148.052 103.273 148.614 102.812 149.271 102.54C149.929 102.268 150.652 102.197 151.35 102.336C152.048 102.475 152.689 102.817 153.192 103.319C153.695 103.821 154.037 104.461 154.176 105.158C154.315 105.855 154.244 106.577 153.971 107.234C153.699 107.89 153.238 108.451 152.646 108.846C152.055 109.24 151.359 109.451 150.648 109.451C150.158 109.476 149.667 109.4 149.208 109.228C148.748 109.056 148.328 108.792 147.974 108.452C147.62 108.112 147.34 107.704 147.15 107.252C146.961 106.8 146.866 106.313 146.871 105.823L147.051 105.859ZM118.849 105.859C118.848 106.526 118.652 107.178 118.284 107.735C117.915 108.292 117.392 108.728 116.778 108.991C116.164 109.254 115.486 109.331 114.829 109.213C114.171 109.095 113.563 108.788 113.078 108.328C112.594 107.869 112.255 107.278 112.104 106.628C111.952 105.978 111.995 105.299 112.226 104.673C112.457 104.047 112.867 103.503 113.405 103.107C113.943 102.711 114.585 102.482 115.252 102.447C115.701 102.442 116.146 102.525 116.563 102.692C116.979 102.86 117.359 103.107 117.679 103.421C118 103.734 118.256 104.108 118.432 104.52C118.608 104.932 118.701 105.375 118.705 105.823L118.849 105.859Z" fill="black"/>
<path d="M197.842 94.5083H186.834V101.693H197.842V94.5083Z" fill="black"/>
<path d="M76.727 94.5083H65.7197V101.693H76.727V94.5083Z" fill="black"/>
<path d="M87.0328 47.5387L81.4497 52.0696L88.3917 60.5997L93.9748 56.0688L87.0328 47.5387Z" fill="black"/>
<path d="M171.666 131.564L166.082 136.094L173.023 144.625L178.606 140.095L171.666 131.564Z" fill="black"/>
<path d="M84.9783 125.68L75.1318 130.593L78.3475 137.02L88.194 132.107L84.9783 125.68Z" fill="black"/>
<path d="M182.451 59.1237L172.606 64.0403L175.824 70.4658L185.669 65.5492L182.451 59.1237Z" fill="black"/>
<path d="M145.216 161.106H122.303C121.349 161.106 120.434 161.484 119.759 162.158C119.085 162.832 118.706 163.745 118.706 164.698V167.248C118.706 168.756 119.004 170.249 119.582 171.642C120.161 173.034 121.01 174.299 122.079 175.364C123.149 176.428 124.418 177.271 125.814 177.845C127.21 178.419 128.706 178.712 130.216 178.707H137.411C140.457 178.707 143.38 177.501 145.537 175.353C147.695 173.205 148.912 170.291 148.921 167.248V164.698C148.922 164.217 148.825 163.741 148.638 163.298C148.45 162.855 148.176 162.454 147.83 162.119C147.484 161.784 147.075 161.522 146.626 161.348C146.177 161.174 145.698 161.091 145.216 161.106ZM137.303 171.523H130.108C129.148 171.523 128.215 171.206 127.453 170.622C126.692 170.037 126.146 169.217 125.9 168.29H141.403C141.14 169.172 140.599 169.946 139.86 170.496C139.121 171.046 138.224 171.343 137.303 171.343V171.523Z" fill="black"/>
<path d="M44.1006 29.5625C39.2561 29.5228 34.5631 31.2467 30.8991 34.4118C29.1207 35.9079 27.6885 37.7713 26.701 39.8736C25.7136 41.9759 25.1946 44.267 25.1797 46.5891V159.489C25.1874 159.92 25.2727 160.345 25.4315 160.746V161.033C25.4315 161.033 25.4315 161.213 25.4315 161.285L40.7912 188.046C41.1082 188.594 41.5645 189.049 42.1141 189.364C42.6636 189.68 43.2869 189.845 43.9207 189.842C44.5546 189.845 45.1779 189.68 45.7274 189.364C46.277 189.049 46.7333 188.594 47.0502 188.046L62.6978 161.105V160.818V160.53C62.8524 160.141 62.9376 159.728 62.9496 159.309V46.3735C62.6527 41.6592 60.5081 37.2515 56.9801 34.105C53.4522 30.9584 48.8249 29.3265 44.1006 29.5625ZM35.6114 39.8C37.9731 37.7816 40.9925 36.6956 44.1006 36.7467C45.5132 36.6183 46.9373 36.7692 48.2915 37.1909C49.6456 37.6126 50.9032 38.2967 51.9924 39.2042C53.0815 40.1117 53.9808 41.2246 54.6388 42.4795C55.2969 43.7343 55.7007 45.1064 55.8273 46.5172V51.8694H32.374V46.5531C32.3953 45.2612 32.6956 43.989 33.2543 42.8236C33.813 41.6581 34.617 40.6268 35.6114 39.8ZM55.9711 149.862L54.8201 149.575H54.0647C53.3546 149.428 52.6313 149.356 51.9064 149.359C49.1029 149.334 46.3837 150.315 44.2445 152.125C42.0907 150.345 39.3783 149.378 36.5826 149.395C35.8477 149.4 35.1142 149.46 34.3883 149.575H33.7049L32.5178 149.898L32.374 59.0896H55.8273L55.9711 149.862ZM44.2805 179.066L32.6977 158.914C32.6818 158.795 32.6818 158.674 32.6977 158.555C32.6977 158.555 32.6977 158.303 32.9135 158.16L33.4171 157.585L33.7768 157.298C34.0327 157.119 34.3108 156.974 34.6042 156.867H34.9999C35.478 156.722 35.9751 156.649 36.4747 156.651C38.633 156.651 40.5394 158.088 40.5394 159.74C40.5394 160.693 40.9184 161.607 41.593 162.28C42.2676 162.954 43.1826 163.332 44.1366 163.332C45.0906 163.332 46.0055 162.954 46.6801 162.28C47.3547 161.607 47.7337 160.693 47.7337 159.74C47.7337 158.088 49.6402 156.651 51.7985 156.651C52.2966 156.667 52.7914 156.739 53.2733 156.867H53.669C53.9555 156.989 54.2321 157.133 54.4963 157.298L54.856 157.621C55.0511 157.787 55.2207 157.981 55.3596 158.196C55.4569 158.298 55.5306 158.421 55.5755 158.555C55.5866 158.674 55.5866 158.795 55.5755 158.914L44.2805 179.066Z" fill="black"/>
<path d="M47.7192 59.3008L40.5249 59.3108L40.6382 140.349L47.8325 140.338L47.7192 59.3008Z" fill="black"/>
</svg>
