<svg width="827" height="670" viewBox="0 0 827 670" fill="none" xmlns="http://www.w3.org/2000/svg">
<path d="M440.638 525.147V556.553C440.638 561.783 444.797 566.026 449.943 566.026C455.089 566.026 459.249 561.783 459.249 556.553V525.147H481.238C495.168 525.147 506.512 513.599 506.512 499.408V477.065H537.351C542.497 477.065 546.656 472.821 546.656 467.592C546.656 462.362 542.497 458.119 537.351 458.119H506.512V436.753H537.351C542.497 436.753 546.656 432.51 546.656 427.28C546.656 422.05 542.497 417.807 537.351 417.807H506.512V396.45H537.351C542.497 396.45 546.656 392.207 546.656 386.977C546.656 381.748 542.497 377.504 537.351 377.504H506.512V356.297C506.512 342.106 495.168 330.557 481.238 330.557H459.249V299.151C459.249 293.921 455.089 289.678 449.943 289.678C444.797 289.678 440.638 293.921 440.638 299.151V330.567H419.654V299.16C419.654 293.931 415.494 289.687 410.348 289.687C405.202 289.687 401.042 293.931 401.042 299.16V330.567H380.067V299.16C380.067 293.931 375.908 289.687 370.762 289.687C365.616 289.687 361.456 293.931 361.456 299.16V330.567H339.476C325.537 330.567 314.193 342.115 314.193 356.306V382.697H283.354C278.208 382.697 274.049 386.94 274.049 392.17C274.049 397.4 278.208 401.643 283.354 401.643H314.193V422.99H283.354C278.208 422.99 274.049 427.233 274.049 432.463C274.049 437.693 278.208 441.936 283.354 441.936H314.193V463.302H283.354C278.208 463.302 274.049 467.545 274.049 472.775C274.049 478.005 278.208 482.248 283.354 482.248H314.193V499.398C314.193 513.589 325.537 525.138 339.476 525.138H361.456V556.544C361.456 561.774 365.616 566.017 370.762 566.017C375.908 566.017 380.067 561.774 380.067 556.544V525.147H401.042V556.553C401.042 561.783 405.202 566.026 410.348 566.026C415.494 566.026 419.654 561.783 419.654 556.553V525.147H440.638ZM332.804 499.408V356.297C332.804 352.556 335.791 349.504 339.476 349.504H481.238C484.914 349.504 487.901 352.556 487.901 356.297V499.408C487.901 503.148 484.914 506.201 481.238 506.201H339.476C335.791 506.201 332.804 503.158 332.804 499.408Z" fill="#2B2E33"/>
<path d="M472.835 483.011V374.74C472.835 369.511 468.675 365.267 463.529 365.267H357.176C352.03 365.267 347.87 369.511 347.87 374.74V483.011C347.87 488.241 352.03 492.484 357.176 492.484H463.529C468.666 492.484 472.835 488.241 472.835 483.011ZM454.224 473.529H366.481V384.204H454.224V473.529Z" fill="#2B2E33"/>
<path d="M781.995 564.91L781.911 448.106C781.911 442.876 777.742 438.642 772.605 438.642H720.159C721.034 433.654 721.518 428.517 721.518 423.269C721.518 422.832 721.471 422.394 721.462 421.957C721.462 421.864 721.518 421.78 721.518 421.678C721.518 387.163 701.148 357.609 672.403 345.465C667.778 343.399 662.948 341.733 657.923 340.617C671.044 325.365 678.461 305.507 678.461 284.188C678.461 278.502 677.902 272.946 676.879 267.568H735.764C740.91 267.568 745.07 263.324 745.07 258.095V130.189C760.61 126.011 772.205 111.727 772.28 94.614C772.354 74.1882 756.079 57.4939 735.885 57.4009C715.888 57.4009 699.538 73.9648 699.454 94.3348C699.389 111.485 710.9 125.862 726.459 130.133V248.612H670.895C661.217 226.8 643.006 210.031 620.738 203.145L620.626 131.604C636.176 127.426 647.771 113.141 647.845 96.0377C647.92 75.6026 631.644 58.8991 611.442 58.8153C591.435 58.8153 575.103 75.3886 575.029 95.7492C574.982 105.65 578.732 114.975 585.581 121.991C590.188 126.718 595.864 129.882 602.024 131.548L602.136 199.879C600.796 199.814 599.484 199.665 598.125 199.665C593.259 199.665 588.392 200.195 583.59 201.144C580.752 158.525 546.963 124.727 505.739 124.727C505.516 124.727 505.311 124.848 505.097 124.857C504.204 124.829 503.339 124.727 502.445 124.727C459.639 124.727 422.101 166.797 422.101 214.759V267C422.101 272.23 426.26 276.473 431.406 276.473C436.552 276.473 440.712 272.23 440.712 267V214.759C440.712 176.885 469.559 143.673 502.445 143.673C536.485 143.673 564.188 173.079 564.188 209.222C564.188 210.273 564.104 211.306 564.039 212.33L563.965 213.316C563.881 214.526 564.104 215.689 564.458 216.806C559.963 246.947 535.378 270.099 505.739 270.099C500.593 270.099 496.434 274.342 496.434 279.572C496.434 284.802 500.593 289.045 505.739 289.045C544.237 289.045 576.239 259.593 582.641 221.012C587.768 219.579 592.933 218.602 598.135 218.602C632.165 218.602 659.859 248.017 659.859 284.16C659.859 307.489 648.515 328.557 629.513 340.505C629.318 340.626 629.197 340.821 629.011 340.961C592.775 348.089 565.258 381.524 565.258 421.65C565.258 426.88 569.418 431.123 574.564 431.123C579.71 431.123 583.869 426.88 583.869 421.65C583.869 386.8 610.567 358.446 643.388 358.446C651.232 358.446 658.705 360.103 665.554 363.043C687.496 373.112 702.906 396.301 702.906 423.25C702.906 459.384 675.213 488.79 641.173 488.79C639.526 488.79 637.907 488.669 636.306 488.529C632.1 488.073 628.08 490.772 626.694 494.904C625.316 499.017 626.87 503.567 630.462 505.931C648.394 517.684 659.198 537.784 659.738 559.94C659.552 560.685 659.291 561.401 659.291 562.211C659.291 597.079 632.584 625.433 599.763 625.433C566.952 625.433 540.254 597.07 540.254 562.211C540.254 556.981 536.094 552.738 530.948 552.738C525.802 552.738 521.643 556.981 521.643 562.211C521.643 592.91 537.751 619.692 561.526 633.79C561.982 635.334 562.401 636.656 562.773 637.782C563.871 641.178 564.169 642.09 564.169 646.455C564.169 682.598 536.466 712.013 502.427 712.013C468.387 712.013 440.693 682.598 440.693 646.455C440.693 645.961 440.498 645.543 440.423 645.077C440.498 644.612 440.693 644.193 440.693 643.7V593.822C440.693 588.592 436.534 584.349 431.388 584.349C426.242 584.349 422.082 588.592 422.082 593.822V643.7C422.082 644.193 422.277 644.612 422.352 645.077C422.277 645.543 422.082 645.961 422.082 646.455C422.082 686.943 449.31 720.834 485.5 729.042V759.974C485.5 765.203 489.659 769.447 494.796 769.447L638.307 769.54C642.494 785.322 656.574 797.047 673.361 797.047H673.482C693.554 796.954 709.83 780.26 709.755 759.825C709.672 739.464 693.331 722.909 673.203 722.909C656.378 722.984 642.364 734.774 638.26 750.603L504.111 750.51V730.875C547.633 729.916 582.771 692.461 582.771 646.464C582.771 645.831 582.762 645.226 582.752 644.649C587.778 645.673 592.914 646.185 598.107 646.185C642.401 646.185 678.442 608.292 678.442 561.699C678.442 540.706 671.184 521.006 658.333 505.8C683.495 500.012 704.256 481.773 714.529 457.579H763.29L763.365 564.817C747.834 568.995 736.248 583.27 736.174 600.373C736.099 620.808 752.366 637.512 772.429 637.596H772.568C792.566 637.596 808.916 621.022 809 600.643C809.083 583.549 797.6 569.199 781.995 564.91ZM718.065 94.4185C718.112 84.4616 726.096 76.3564 735.932 76.3564C745.749 76.3936 753.706 84.5639 753.668 94.5488C753.622 104.506 745.647 112.602 735.867 112.602V116.203C735.858 116.203 735.839 116.194 735.83 116.194L735.802 112.602C725.994 112.555 718.028 104.403 718.065 94.4185ZM593.649 95.8237C593.687 85.8667 601.671 77.7615 611.498 77.7615C621.324 77.7987 629.281 85.9691 629.243 95.9633C629.197 105.911 621.213 114.007 611.423 114.007V114.025C611.404 114.025 611.377 114.016 611.358 114.016V114.007C606.603 113.988 602.145 112.09 598.795 108.656C595.455 105.222 593.631 100.663 593.649 95.8237ZM673.361 741.846C683.141 741.846 691.116 749.951 691.163 759.89C691.2 769.884 683.234 778.054 673.436 778.092L673.38 787.565V778.092C663.59 778.092 655.606 769.986 655.56 760.039C655.522 750.054 663.479 741.893 673.361 741.846ZM772.596 618.659V628.132L772.531 618.659C762.723 618.621 754.776 610.451 754.813 600.457C754.86 590.509 762.825 582.423 772.671 582.423C782.488 582.46 790.444 590.612 790.416 600.587C790.37 610.554 782.376 618.659 772.596 618.659Z" fill="#2B2E33"/>
<path d="M397.702 584.098C392.556 584.098 388.396 588.341 388.396 593.571V643.449C388.396 643.933 388.591 644.361 388.666 644.826C388.591 645.291 388.396 645.719 388.396 646.203C388.396 682.346 360.702 711.761 326.663 711.761C292.623 711.761 264.92 682.346 264.92 646.203C264.92 641.848 265.218 640.936 266.316 637.53C266.688 636.404 267.107 635.083 267.563 633.538C291.339 619.431 307.447 592.659 307.447 561.96C307.447 556.73 303.287 552.487 298.141 552.487C292.995 552.487 288.835 556.73 288.835 561.96C288.835 596.828 262.147 625.182 229.326 625.182C196.505 625.182 169.798 596.818 169.798 561.96C169.798 561.159 169.538 560.434 169.351 559.689C169.9 537.532 180.704 517.432 198.627 505.679C202.228 503.325 203.782 498.775 202.396 494.652C201.018 490.521 197.017 487.878 192.783 488.278C191.173 488.418 189.554 488.538 187.916 488.538C153.876 488.538 126.183 459.133 126.183 422.999C126.183 396.05 141.584 372.861 163.535 362.792C170.384 359.861 177.866 358.195 185.701 358.195C218.522 358.195 245.22 386.549 245.22 421.399C245.22 426.628 249.38 430.872 254.526 430.872C259.672 430.872 263.831 426.628 263.831 421.399C263.831 381.273 236.305 347.829 200.079 340.7C199.892 340.57 199.771 340.375 199.576 340.254C180.574 328.296 169.23 307.238 169.23 283.908C169.23 247.765 196.924 218.35 230.954 218.35C236.156 218.35 241.321 219.328 246.448 220.761C252.851 259.342 284.853 288.794 323.35 288.794C328.496 288.794 332.655 284.551 332.655 279.321C332.655 274.091 328.496 269.848 323.35 269.848C293.702 269.848 269.135 246.705 264.631 216.554C264.985 215.438 265.208 214.275 265.125 213.065L265.05 212.078C264.985 211.055 264.901 210.022 264.901 208.97C264.901 172.827 292.604 143.422 326.644 143.422C359.53 143.422 388.377 176.633 388.377 214.507V266.749C388.377 271.979 392.537 276.222 397.683 276.222C402.829 276.222 406.989 271.979 406.989 266.749V214.507C406.989 173.004 378.876 135.977 343.571 126.728V92.0735C343.571 86.8438 339.411 82.6004 334.275 82.6004L227.977 82.5074C223.789 66.7251 209.701 55 192.82 55C172.748 55.0838 156.472 71.778 156.547 92.2224C156.631 112.583 172.971 129.138 192.96 129.138H193.099C209.924 129.063 223.938 117.273 228.042 101.444L324.969 101.528V124.55C324.653 124.55 324.336 124.587 324.001 124.597C323.778 124.587 323.582 124.466 323.359 124.466C282.126 124.466 248.337 158.264 245.508 200.884C240.697 199.925 235.84 199.404 230.973 199.404C186.678 199.404 150.638 237.315 150.638 283.908C150.638 285.844 150.768 287.77 150.889 289.678H76.3048V184.264C91.8637 179.993 103.375 165.616 103.31 148.456C103.226 128.095 86.8759 111.532 66.7572 111.532C46.6851 111.625 30.4096 128.319 30.484 148.754C30.5585 165.858 42.1532 180.151 57.6936 184.32V299.16C57.6936 304.39 61.8532 308.633 66.9992 308.633H154.146C157.543 320.396 163.303 331.209 171.166 340.347C166.16 341.464 161.339 343.12 156.724 345.176C127.96 357.311 107.572 386.875 107.572 421.408C107.572 421.51 107.627 421.594 107.627 421.687C107.618 422.124 107.572 422.562 107.572 422.999C107.572 425.921 107.758 428.806 108.037 431.663H88.8022C85.0707 415.303 70.74 403.011 53.4316 402.936C33.4339 402.936 17.0839 419.5 17.0002 439.889C16.9351 460.315 33.2199 477 53.2827 477.074H53.4409C69.8374 477.074 83.6097 465.861 88.1322 450.618H112.02C121.102 478.135 143.296 499.24 170.747 505.549C157.896 520.754 150.638 540.454 150.638 561.448C150.638 608.032 186.678 645.933 230.973 645.933C236.175 645.933 241.302 645.422 246.327 644.398C246.318 644.975 246.309 645.571 246.309 646.213C246.309 648.195 246.467 650.14 246.588 652.084L187.153 652.047C187.032 652.047 186.939 651.982 186.818 651.982C186.697 651.982 186.604 652.047 186.483 652.047L93.0362 651.982C88.8487 636.218 74.7693 624.512 57.889 624.512C37.8261 624.586 21.5413 641.262 21.6065 661.706C21.6902 682.067 38.0402 698.64 58.0379 698.64H58.1775C75.002 698.566 88.9976 686.766 93.1014 670.928L177.522 670.984V725.561C161.46 729.367 149.382 743.959 149.307 761.435C149.233 781.87 165.508 798.573 185.599 798.657H185.711C205.718 798.657 222.049 782.084 222.123 761.723C222.17 751.822 218.42 742.498 211.571 735.481C207.225 731.024 201.912 728 196.133 726.241V670.993L249.863 671.031C259.969 705.545 290.575 730.707 326.663 730.707C370.967 730.707 407.007 692.796 407.007 646.203C407.007 645.719 406.812 645.291 406.737 644.826C406.812 644.361 407.007 643.933 407.007 643.449V593.571C407.007 588.341 402.838 584.098 397.702 584.098ZM193.025 110.201L192.96 119.674V110.201C183.18 110.201 175.205 102.105 175.158 92.1573C175.121 82.163 183.087 73.9927 192.941 73.9555C202.731 73.9555 210.715 82.0607 210.761 92.0084C210.808 102.003 202.842 110.164 193.025 110.201ZM49.1045 148.679C49.0673 138.685 57.0329 130.515 66.8875 130.478C76.677 130.478 84.6612 138.583 84.7077 148.531C84.745 158.525 76.7794 166.686 66.9713 166.723V166.732C66.9526 166.732 66.9247 166.742 66.9061 166.742V166.723C57.1259 166.732 49.1417 158.627 49.1045 148.679ZM53.4409 458.119V467.592L53.3572 458.119C43.5398 458.081 35.5835 449.93 35.6114 439.954C35.6579 429.988 43.6421 421.883 53.4968 421.883C63.3049 421.92 71.2518 430.09 71.2146 440.084C71.1774 450.032 63.2025 458.119 53.4409 458.119ZM203.503 761.649C203.466 771.606 195.482 779.711 185.701 779.711V789.184L185.655 779.711C175.828 779.674 167.872 771.503 167.909 761.509C167.956 751.561 175.94 743.465 185.794 743.465C190.55 743.484 195.007 745.382 198.357 748.816C201.698 752.25 203.522 756.8 203.503 761.649ZM58.0937 679.685L58.0286 689.158V679.685C48.2391 679.685 40.2549 671.57 40.2084 661.632C40.1804 651.647 48.146 643.486 58.0379 643.449C67.7995 643.449 75.765 651.535 75.8116 661.474C75.8581 671.468 67.9018 679.638 58.0937 679.685Z" fill="#2B2E33"/>
</svg>
