<svg width="934" height="891" viewBox="0 0 934 891" fill="none" xmlns="http://www.w3.org/2000/svg">
<path d="M113.972 256.009C111.61 256.009 109.391 256.926 107.724 258.603C104.28 262.047 104.28 267.655 107.724 271.11C109.38 272.766 111.588 273.682 113.939 273.682C114.921 273.682 115.882 273.528 116.809 273.219L120.937 271.828L122.328 267.699C123.41 264.476 122.604 260.988 120.231 258.614C118.553 256.926 116.334 256.009 113.972 256.009ZM597.136 907.502L593.228 909.434C590.181 910.946 588.294 913.982 588.294 917.349C588.294 922.228 592.257 926.191 597.136 926.191C602.015 926.191 605.978 922.228 605.978 917.349C605.978 913.982 604.09 910.946 601.043 909.434L597.136 907.502ZM113.972 242.211C119.767 242.211 125.563 244.419 129.989 248.845C136.281 255.137 138.07 264.2 135.409 272.093L299.731 436.426H514.301L607.181 529.305V897.081C614.643 900.79 619.787 908.462 619.787 917.36C619.787 929.866 609.643 940 597.147 940C584.64 940 574.506 929.855 574.506 917.36C574.506 908.462 579.65 900.79 587.113 897.081V537.617L506 456.505H291.441L121.224 286.288C118.873 287.083 116.412 287.481 113.95 287.481C108.166 287.481 102.381 285.284 97.9659 280.868C89.1239 272.026 89.1239 257.687 97.9659 248.845C102.37 244.419 108.177 242.211 113.972 242.211Z" fill="#2B2E33"/>
<path d="M340.751 87.6029C335.872 87.6029 331.909 91.5658 331.909 96.4449C331.909 99.8117 333.797 102.847 336.843 104.36L340.751 106.291L344.659 104.36C347.705 102.847 349.593 99.8117 349.593 96.4449C349.593 91.5769 345.619 87.6029 340.751 87.6029ZM659.46 766.56L655.553 768.492C652.506 770.004 650.618 773.04 650.618 776.407C650.618 781.286 654.581 785.248 659.46 785.248C664.339 785.248 668.302 781.286 668.302 776.407C668.302 773.04 666.415 770.004 663.368 768.492L659.46 766.56ZM340.751 73.8046C353.258 73.8046 363.391 83.9491 363.391 96.4449C363.391 105.342 358.247 113.014 350.785 116.723V295.395L415.064 357.378H548.179L669.494 478.693V756.128C676.957 759.826 682.101 767.509 682.101 776.407C682.101 788.913 671.956 799.047 659.46 799.047C646.964 799.047 636.82 788.902 636.82 776.407C636.82 767.509 641.964 759.837 649.426 756.128V487.005L539.867 377.446H406.961L330.706 303.917V116.723C323.244 113.025 318.1 105.342 318.1 96.4449C318.1 83.9381 328.244 73.8046 340.751 73.8046Z" fill="#2B2E33"/>
<path d="M891.881 306.831C889.518 306.831 887.3 307.748 885.633 309.415C883.248 311.799 882.443 315.276 883.535 318.499L884.926 322.628L889.055 324.019C889.982 324.328 890.942 324.482 891.925 324.482C894.276 324.482 896.484 323.566 898.14 321.91C899.806 320.244 900.734 318.025 900.734 315.662C900.734 313.3 899.817 311.081 898.14 309.415C896.462 307.748 894.243 306.831 891.881 306.831ZM723.452 880.744L719.545 882.676C716.498 884.188 714.61 887.224 714.61 890.591C714.61 895.47 718.573 899.433 723.452 899.433C728.331 899.433 732.294 895.47 732.294 890.591C732.294 887.224 730.407 884.188 727.36 882.676L723.452 880.744ZM891.881 293.022C897.676 293.022 903.471 295.23 907.898 299.656C916.74 308.498 916.74 322.838 907.898 331.68C903.482 336.095 897.698 338.292 891.914 338.292C889.452 338.292 887.002 337.894 884.639 337.1L806.253 415.485V550.996L733.475 623.775V870.313C740.938 874.011 746.082 881.694 746.082 890.591C746.082 903.098 735.937 913.231 723.441 913.231C710.934 913.231 700.801 903.087 700.801 890.591C700.801 881.694 705.945 874.022 713.407 870.313V615.462L786.185 542.684V407.173L870.455 322.904C867.794 315.011 869.582 305.948 875.875 299.656C880.29 295.241 886.085 293.022 891.881 293.022Z" fill="#2B2E33"/>
<path d="M201.167 148.735C198.805 148.735 196.586 149.652 194.919 151.33C191.475 154.774 191.475 160.392 194.919 163.836C196.575 165.492 198.783 166.408 201.134 166.408C202.116 166.408 203.077 166.254 204.004 165.945L208.132 164.554L209.523 160.425C210.605 157.202 209.799 153.714 207.426 151.341C205.759 149.652 203.529 148.735 201.167 148.735ZM327.284 365.171C326.302 365.171 325.341 365.326 324.414 365.635L320.286 367.026L318.895 371.154C317.813 374.377 318.619 377.855 320.992 380.239C322.659 381.906 324.878 382.833 327.24 382.833C329.602 382.833 331.821 381.917 333.488 380.239C335.155 378.572 336.082 376.353 336.082 373.991C336.082 371.629 335.166 369.41 333.488 367.743C331.843 366.076 329.635 365.171 327.284 365.171ZM201.167 134.926C206.962 134.926 212.758 137.134 217.184 141.56C223.476 147.852 225.265 156.915 222.604 164.808L262.951 205.154V295.495L320.01 352.543C322.361 351.748 324.823 351.351 327.284 351.351C333.068 351.351 338.853 353.547 343.257 357.963C352.099 366.805 352.099 381.144 343.257 389.986C338.831 394.413 333.035 396.62 327.24 396.62C321.445 396.62 315.649 394.413 311.223 389.986C304.931 383.694 303.143 374.631 305.803 366.739L242.871 303.807V213.466L208.397 179.004C206.046 179.798 203.585 180.196 201.123 180.196C195.339 180.196 189.554 177.999 185.15 173.584C176.308 164.742 176.308 150.402 185.15 141.56C189.576 137.134 195.372 134.926 201.167 134.926Z" fill="#2B2E33"/>
<path d="M49.6508 336.051C44.7717 336.051 40.8089 340.014 40.8089 344.893C40.8089 348.26 42.6965 351.295 45.7431 352.808L49.6508 354.739L53.5585 352.808C56.6052 351.295 58.4928 348.26 58.4928 344.893C58.4928 340.014 54.5189 336.051 49.6508 336.051ZM124.007 500.682C123.025 500.682 122.065 500.837 121.137 501.146L117.009 502.536L115.618 506.665C114.536 509.888 115.342 513.365 117.715 515.75C119.382 517.417 121.601 518.344 123.963 518.344C126.326 518.344 128.544 517.428 130.211 515.75C133.655 512.306 133.655 506.698 130.211 503.243C128.578 501.587 126.37 500.682 124.007 500.682ZM49.6508 322.241C62.1576 322.241 72.2912 332.386 72.2912 344.882C72.2912 353.779 67.1472 361.451 59.685 365.16V431.017L116.744 488.065C119.095 487.27 121.557 486.873 124.018 486.873C129.803 486.873 135.587 489.069 139.992 493.485C148.834 502.327 148.834 516.666 139.992 525.508C135.576 529.935 129.77 532.142 123.974 532.142C118.179 532.142 112.384 529.935 107.957 525.508C101.665 519.216 99.8769 510.153 102.537 502.26L39.6056 439.329V365.16C32.1435 361.462 26.9995 353.779 26.9995 344.882C26.9995 332.386 37.144 322.241 49.6508 322.241Z" fill="#2B2E33"/>
<path d="M772.386 132.773C767.507 132.773 763.544 136.736 763.544 141.615C763.544 144.982 765.432 148.018 768.478 149.53L772.386 151.462L776.294 149.53C779.34 148.018 781.228 144.982 781.228 141.615C781.228 136.747 777.254 132.773 772.386 132.773ZM727.216 515.606L723.308 517.538C720.261 519.05 718.374 522.086 718.374 525.453C718.374 530.332 722.337 534.295 727.216 534.295C732.095 534.295 736.058 530.332 736.058 525.453C736.058 522.086 734.17 519.05 731.123 517.538L727.216 515.606ZM772.386 118.975C784.893 118.975 795.026 129.12 795.026 141.615C795.026 150.513 789.882 158.184 782.42 161.893V258.648L737.25 303.818V505.175C744.712 508.873 749.856 516.556 749.856 525.453C749.856 537.96 739.711 548.093 727.216 548.093C714.709 548.093 704.575 537.949 704.575 525.453C704.575 516.556 709.719 508.884 717.181 505.175V295.506L762.352 250.335V161.893C754.89 158.195 749.746 150.513 749.746 141.615C749.735 129.12 759.879 118.975 772.386 118.975Z" fill="#2B2E33"/>
<path d="M862.728 200.529C857.849 200.529 853.886 204.492 853.886 209.371C853.886 212.738 855.773 215.773 858.82 217.286L862.728 219.217L866.636 217.286C869.682 215.773 871.57 212.738 871.57 209.371C871.57 204.503 867.596 200.529 862.728 200.529ZM810.945 297.415C808.594 297.415 806.386 298.332 804.73 299.988C801.286 303.432 801.286 309.039 804.73 312.494C806.397 314.161 808.616 315.088 810.978 315.088C813.341 315.088 815.559 314.172 817.226 312.494C819.611 310.11 820.416 306.633 819.324 303.409L817.933 299.281L813.804 297.89C812.888 297.57 811.928 297.415 810.945 297.415ZM862.728 186.73C875.235 186.73 885.368 196.875 885.368 209.371C885.368 218.268 880.224 225.94 872.762 229.649V258.648L832.416 298.994C835.076 306.887 833.288 315.949 826.996 322.242C822.569 326.668 816.774 328.876 810.978 328.876C805.183 328.876 799.388 326.668 794.961 322.242C786.119 313.4 786.119 299.06 794.961 290.218C799.377 285.803 805.161 283.606 810.934 283.606C813.396 283.606 815.846 284.003 818.209 284.798L852.672 250.335V229.649C845.209 225.951 840.065 218.268 840.065 209.371C840.076 196.875 850.221 186.73 862.728 186.73Z" fill="#2B2E33"/>
<path d="M682.046 87.6029C677.167 87.6029 673.204 91.5658 673.204 96.4449C673.204 99.8117 675.092 102.847 678.138 104.36L682.046 106.291L685.954 104.36C689.001 102.847 690.888 99.8117 690.888 96.4449C690.888 91.5769 686.914 87.6029 682.046 87.6029ZM456.25 268.229C451.371 268.229 447.408 272.192 447.408 277.071C447.408 281.95 451.371 285.913 456.25 285.913C459.616 285.913 462.652 284.025 464.164 280.979L466.096 277.082L464.164 273.174C462.641 270.128 459.616 268.229 456.25 268.229ZM682.046 73.8046C694.553 73.8046 704.687 83.9491 704.687 96.4449C704.687 105.342 699.542 113.014 692.08 116.723V168.307L573.271 287.116H476.517C472.808 294.578 465.136 299.722 456.239 299.722C443.732 299.722 433.598 289.578 433.598 277.082C433.598 264.575 443.743 254.442 456.239 254.442C465.136 254.442 472.808 259.586 476.517 267.048H564.959L672.001 160.006V116.723C664.539 113.025 659.395 105.342 659.395 96.4449C659.395 83.9381 669.539 73.8046 682.046 73.8046Z" fill="#2B2E33"/>
<path d="M517.371 35.7984C515.009 35.7984 512.79 36.7146 511.123 38.3925C509.456 40.0593 508.529 42.2781 508.529 44.6404C508.529 47.0027 509.445 49.2214 511.112 50.8883C512.768 52.5441 514.976 53.4603 517.327 53.4603C518.309 53.4603 519.27 53.3057 520.197 52.9967L524.325 51.6058L525.716 47.4773C526.798 44.254 525.992 40.7658 523.619 38.3925C521.952 36.7256 519.733 35.7984 517.371 35.7984ZM433.665 177.888C428.785 177.888 424.823 181.851 424.823 186.73C424.823 191.61 428.785 195.572 433.665 195.572C437.031 195.572 440.067 193.685 441.579 190.638L443.511 186.742L441.579 182.834C440.056 179.776 437.031 177.888 433.665 177.888ZM517.371 22C523.166 22 528.962 24.2077 533.388 28.6343C539.68 34.9263 541.469 43.9891 538.808 51.8818L605.901 118.975L528.112 196.765H453.943C450.234 204.227 442.562 209.371 433.665 209.371C421.158 209.371 411.024 199.226 411.024 186.73C411.024 174.224 421.169 164.09 433.665 164.09C442.562 164.09 450.234 169.234 453.943 176.696H519.789L577.51 118.975L524.612 66.0775C522.261 66.8723 519.8 67.2697 517.338 67.2697C511.554 67.2697 505.769 65.073 501.354 60.6575C492.512 51.8155 492.512 37.4763 501.354 28.6343C505.78 24.2077 511.576 22 517.371 22Z" fill="#2B2E33"/>
<path d="M404.445 35.7984C402.083 35.7984 399.864 36.7146 398.197 38.3925C394.753 41.8365 394.753 47.4552 398.197 50.8993C399.853 52.5551 402.061 53.4713 404.412 53.4713C405.394 53.4713 406.355 53.3168 407.282 53.0077L411.41 51.6168L412.801 47.4883C413.883 44.2651 413.077 40.7879 410.704 38.4035C409.026 36.7256 406.807 35.7984 404.445 35.7984ZM462.796 94.1379C461.813 94.1379 460.853 94.2924 459.926 94.6015L455.797 95.9924L454.406 100.121C453.324 103.344 454.13 106.821 456.504 109.206C458.17 110.873 460.389 111.8 462.751 111.8C465.114 111.8 467.332 110.884 468.999 109.206C470.666 107.539 471.593 105.32 471.593 102.958C471.593 100.596 470.677 98.3767 468.999 96.7099C467.355 95.0541 465.147 94.1379 462.796 94.1379ZM404.445 22C410.24 22 416.036 24.2077 420.462 28.6343C426.754 34.9263 428.542 43.9891 425.882 51.8818L455.532 81.5317C457.883 80.7369 460.345 80.3395 462.807 80.3395C468.591 80.3395 474.375 82.5362 478.78 86.9517C487.622 95.7937 487.622 110.133 478.78 118.975C474.353 123.401 468.558 125.609 462.762 125.609C456.967 125.609 451.172 123.401 446.745 118.975C440.453 112.683 438.665 103.62 441.325 95.7275L411.675 66.0775C409.324 66.8723 406.863 67.2697 404.401 67.2697C398.617 67.2697 392.832 65.073 388.428 60.6575C379.586 51.8155 379.586 37.4763 388.428 28.6343C392.854 24.2077 398.65 22 404.445 22Z" fill="#2B2E33"/>
<path d="M666.029 261.661C663.667 261.661 661.448 262.577 659.781 264.244C657.397 266.628 656.591 270.106 657.684 273.329L659.075 277.457L663.203 278.848C664.13 279.157 665.091 279.312 666.073 279.312C668.425 279.312 670.632 278.396 672.288 276.74C675.732 273.296 675.732 267.677 672.288 264.233C670.61 262.577 668.391 261.661 666.029 261.661ZM666.062 365.171C665.08 365.171 664.119 365.325 663.192 365.634L659.064 367.025L657.673 371.154C656.591 374.377 657.397 377.865 659.77 380.239C661.437 381.905 663.656 382.833 666.018 382.833C668.38 382.833 670.599 381.917 672.266 380.239C675.71 376.795 675.71 371.187 672.266 367.732C670.621 366.076 668.413 365.171 666.062 365.171ZM666.029 247.852C671.824 247.852 677.62 250.059 682.046 254.486C690.888 263.328 690.888 277.667 682.046 286.509C677.631 290.925 671.846 293.121 666.073 293.121C663.612 293.121 661.161 292.724 658.799 291.929L646.91 303.807V340.665L658.788 352.543C661.139 351.748 663.601 351.35 666.062 351.35C671.847 351.35 677.631 353.547 682.035 357.963C690.877 366.805 690.877 381.144 682.035 389.986C677.609 394.412 671.824 396.62 666.018 396.62C660.223 396.62 654.427 394.412 650.001 389.986C643.709 383.694 641.921 374.631 644.581 366.738L626.82 348.977V295.495L644.581 277.733C641.921 269.841 643.709 260.778 650.001 254.486C654.438 250.07 660.234 247.852 666.029 247.852Z" fill="#2B2E33"/>
<path d="M133.412 397.172C131.05 397.172 128.831 398.088 127.164 399.766C123.72 403.21 123.72 408.829 127.164 412.273C128.82 413.929 131.028 414.845 133.379 414.845C134.361 414.845 135.322 414.691 136.249 414.381L140.377 412.991L141.768 408.862C142.85 405.639 142.044 402.151 139.671 399.777C138.004 398.088 135.774 397.172 133.412 397.172ZM456.128 516.666C452.761 516.666 449.726 518.554 448.213 521.6L446.282 525.508L448.213 529.405C449.726 532.451 452.761 534.339 456.128 534.339C461.007 534.339 464.97 530.376 464.97 525.497C464.97 520.618 461.007 516.666 456.128 516.666ZM133.412 383.374C139.207 383.374 145.003 385.582 149.429 390.008C155.721 396.3 157.509 405.363 154.849 413.256L257.078 515.485H435.85C439.548 508.023 447.231 502.879 456.128 502.879C468.635 502.879 478.769 513.023 478.769 525.519C478.769 538.026 468.624 548.159 456.128 548.159C447.231 548.159 439.559 543.015 435.85 535.553H248.755L140.653 427.451C138.302 428.246 135.84 428.643 133.379 428.643C127.595 428.643 121.81 426.447 117.395 422.031C108.553 413.189 108.553 398.85 117.395 390.008C121.821 385.582 127.617 383.374 133.412 383.374Z" fill="#2B2E33"/>
<path d="M891.881 419.757C889.518 419.757 887.3 420.674 885.633 422.34C883.248 424.725 882.443 428.202 883.535 431.425L884.926 435.554L889.055 436.945C889.982 437.254 890.942 437.408 891.925 437.408C894.276 437.408 896.484 436.492 898.14 434.836C901.584 431.392 901.584 425.773 898.14 422.329C896.462 420.674 894.243 419.757 891.881 419.757ZM862.727 515.606L858.82 517.538C855.773 519.05 853.885 522.086 853.885 525.453C853.885 530.332 857.848 534.295 862.727 534.295C867.607 534.295 871.569 530.332 871.569 525.453C871.569 522.086 869.682 519.05 866.635 517.538L862.727 515.606ZM891.881 405.959C897.676 405.959 903.471 408.167 907.898 412.593C916.74 421.435 916.74 435.774 907.898 444.616C903.482 449.032 897.698 451.229 891.925 451.229C889.463 451.229 887.013 450.831 884.65 450.036L872.762 461.914V505.175C880.224 508.873 885.368 516.556 885.368 525.453C885.368 537.96 875.223 548.093 862.727 548.093C850.232 548.093 840.087 537.949 840.087 525.453C840.087 516.556 845.231 508.884 852.693 505.175V453.591L870.455 435.83C867.794 427.937 869.582 418.874 875.875 412.582C880.29 408.167 886.085 405.959 891.881 405.959Z" fill="#2B2E33"/>
</svg>
