<svg width="40" height="41" viewBox="0 0 40 41" fill="none" xmlns="http://www.w3.org/2000/svg">
<path d="M37.1928 2.81518C35.7499 1.37192 34.0114 0.650154 31.9788 0.650154H7.37964C5.347 0.650154 3.60855 1.37192 2.16502 2.81518C0.721764 4.25871 0 5.99706 0 8.0298V32.6287C0 34.6612 0.721764 36.3997 2.16502 37.8433C3.60855 39.2868 5.347 40.0086 7.37964 40.0086H31.9785C34.0111 40.0086 35.7496 39.2868 37.1925 37.8433C38.636 36.3997 39.3578 34.6613 39.3578 32.6287V8.0298C39.3577 5.99706 38.6359 4.25844 37.1928 2.81518ZM11.9919 33.6023H6.07271V15.8192H11.9919V33.6023ZM11.4541 12.5269C10.8392 13.1163 10.0277 13.411 9.01972 13.411H8.99387C8.02027 13.411 7.23048 13.1163 6.62386 12.5269C6.01716 11.9375 5.71398 11.2073 5.71398 10.3361C5.71398 9.44783 6.02595 8.71315 6.64926 8.1322C7.27302 7.55143 8.08004 7.26091 9.0707 7.26091C10.0614 7.26091 10.8558 7.55143 11.4538 8.1322C12.0516 8.71315 12.3592 9.44783 12.3762 10.3361C12.3761 11.2069 12.069 11.9371 11.4541 12.5269ZM33.2853 33.6023H27.3662V24.096C27.3662 21.4144 26.3757 20.0732 24.3941 20.0732C23.6425 20.0732 23.0101 20.2824 22.4978 20.701C21.9849 21.1193 21.6007 21.6275 21.3448 22.2259C21.225 22.533 21.1654 23.0112 21.1654 23.6602V33.6022H15.2463C15.2975 22.8745 15.2975 16.9466 15.2463 15.8191H21.1654V18.3297C22.41 16.3838 24.1772 15.4089 26.4697 15.4089C28.5196 15.4089 30.1683 16.0838 31.4152 17.4331C32.6623 18.7827 33.2857 20.773 33.2857 23.4031V33.6023H33.2853Z" fill="black"/>
</svg>
