<svg width="41" height="40" viewBox="0 0 41 40" fill="none" xmlns="http://www.w3.org/2000/svg">
<g clip-path="url(#clip0)">
<path d="M40.2229 6.61035C40.2229 3.13706 37.0872 0 33.613 0H7.17338C3.69922 0 0.563477 3.13706 0.563477 6.61035V33.0491C0.563477 36.5224 3.69922 39.6594 7.17382 39.6594H20.3932V24.677H15.5459V18.0671H20.3932V15.4919C20.3932 11.0504 23.7281 7.05057 27.8293 7.05057H33.1724V13.6605H27.8293C27.2446 13.6605 26.5624 14.3704 26.5624 15.4337V18.0671H33.1724V24.677H26.5624V39.6594H33.613C37.0872 39.6594 40.2229 36.5224 40.2229 33.0491V6.61035Z" fill="black"/>
</g>
<defs>
<clipPath id="clip0">
<rect x="0.563477" width="39.6594" height="39.6594" fill="white"/>
</clipPath>
</defs>
</svg>
