<svg width="40" height="40" viewBox="0 0 40 40" fill="none" xmlns="http://www.w3.org/2000/svg">
<path fill-rule="evenodd" clip-rule="evenodd" d="M40 0H0V40H40V0ZM12.632 5.13208H27.3681C31.5055 5.13208 34.8704 8.49746 34.8704 12.6344V27.3705C34.8704 31.5079 31.5055 34.8728 27.3681 34.8728H12.632C8.49502 34.8728 5.12964 31.5079 5.12964 27.3705V12.6344C5.12964 8.49746 8.49502 5.13208 12.632 5.13208ZM27.3681 31.6367C29.7203 31.6367 31.6341 29.7229 31.6341 27.3706V12.6344C31.6341 10.2825 29.7203 8.3688 27.3681 8.3688H12.632C10.2802 8.3688 8.36636 10.2826 8.36636 12.6344V27.3706C8.36636 29.7229 10.2802 31.6367 12.632 31.6367H27.3681ZM27.9062 13.9267C26.9063 13.9267 26.0933 13.1137 26.0933 12.1145C26.0933 11.1151 26.9063 10.302 27.9062 10.302C28.9054 10.302 29.7184 11.1151 29.7184 12.1145C29.7184 13.1137 28.9054 13.9267 27.9062 13.9267ZM12.3403 20.0022C12.3403 15.7791 15.7766 12.3428 19.9998 12.3428C24.2234 12.3428 27.6597 15.7792 27.6597 20.0022C27.6597 24.2258 24.2234 27.6622 19.9998 27.6622C15.7766 27.6622 12.3403 24.2258 12.3403 20.0022ZM15.5765 20.0024C15.5765 22.4413 17.5618 24.4261 19.9998 24.4261C22.4387 24.4261 24.4226 22.4412 24.4226 20.0024C24.4226 17.5644 22.4387 15.58 19.9998 15.58C17.5618 15.58 15.5765 17.5644 15.5765 20.0024Z" fill="black"/>
</svg>
