<svg width="4358" height="1150" viewBox="0 0 4358 1150" fill="none" xmlns="http://www.w3.org/2000/svg">
<g clip-path="url(#clip0)">
<path d="M1794.9 1025.2H1925.32V1076.26H1731.63V690.531H1794.9V1025.2ZM1943.27 921.966C1943.27 891.256 1949.56 864.061 1962.14 840.381C1975.09 816.701 1992.48 798.386 2014.31 785.436C2036.51 772.116 2060.93 765.456 2087.57 765.456C2111.62 765.456 2132.52 770.266 2150.28 779.886C2168.41 789.136 2182.84 800.791 2193.57 814.851V770.451H2257.4V1076.26H2193.57V1030.75C2182.84 1045.18 2168.23 1057.2 2149.73 1066.82C2131.23 1076.44 2110.14 1081.25 2086.46 1081.25C2060.19 1081.25 2036.14 1074.59 2014.31 1061.27C1992.48 1047.58 1975.09 1028.71 1962.14 1004.66C1949.56 980.241 1943.27 952.676 1943.27 921.966ZM2193.57 923.076C2193.57 901.986 2189.13 883.671 2180.25 868.131C2171.74 852.591 2160.46 840.751 2146.4 832.611C2132.34 824.471 2117.17 820.401 2100.89 820.401C2084.61 820.401 2069.44 824.471 2055.38 832.611C2041.32 840.381 2029.85 852.036 2020.97 867.576C2012.46 882.746 2008.2 900.876 2008.2 921.966C2008.2 943.056 2012.46 961.556 2020.97 977.466C2029.85 993.376 2041.32 1005.59 2055.38 1014.1C2069.81 1022.24 2084.98 1026.31 2100.89 1026.31C2117.17 1026.31 2132.34 1022.24 2146.4 1014.1C2160.46 1005.96 2171.74 994.116 2180.25 978.576C2189.13 962.666 2193.57 944.166 2193.57 923.076ZM2389.89 815.961C2400.62 801.161 2415.24 789.136 2433.74 779.886C2452.61 770.266 2473.51 765.456 2496.45 765.456C2523.46 765.456 2547.88 771.931 2569.71 784.881C2591.54 797.831 2608.75 816.331 2621.33 840.381C2633.91 864.061 2640.2 891.256 2640.2 921.966C2640.2 952.676 2633.91 980.241 2621.33 1004.66C2608.75 1028.71 2591.36 1047.58 2569.16 1061.27C2547.33 1074.59 2523.09 1081.25 2496.45 1081.25C2472.77 1081.25 2451.68 1076.63 2433.18 1067.38C2415.05 1058.13 2400.62 1046.29 2389.89 1031.86V1076.26H2326.62V665.556H2389.89V815.961ZM2575.82 921.966C2575.82 900.876 2571.38 882.746 2562.5 867.576C2553.99 852.036 2542.52 840.381 2528.09 832.611C2514.03 824.471 2498.86 820.401 2482.58 820.401C2466.67 820.401 2451.5 824.471 2437.07 832.611C2423.01 840.751 2411.54 852.591 2402.66 868.131C2394.15 883.671 2389.89 901.986 2389.89 923.076C2389.89 944.166 2394.15 962.666 2402.66 978.576C2411.54 994.116 2423.01 1005.96 2437.07 1014.1C2451.5 1022.24 2466.67 1026.31 2482.58 1026.31C2498.86 1026.31 2514.03 1022.24 2528.09 1014.1C2542.52 1005.59 2553.99 993.376 2562.5 977.466C2571.38 961.556 2575.82 943.056 2575.82 921.966ZM2799.89 1081.25C2775.84 1081.25 2754.2 1077 2734.96 1068.49C2716.09 1059.61 2701.1 1047.77 2690 1032.97C2678.9 1017.8 2672.98 1000.96 2672.24 982.461H2737.73C2738.84 995.411 2744.95 1006.33 2756.05 1015.21C2767.52 1023.72 2781.76 1027.97 2798.78 1027.97C2816.54 1027.97 2830.23 1024.64 2839.85 1017.98C2849.84 1010.95 2854.84 1002.07 2854.84 991.341C2854.84 979.871 2849.29 971.361 2838.19 965.811C2827.46 960.261 2810.25 954.156 2786.57 947.496C2763.63 941.206 2744.95 935.101 2730.52 929.181C2716.09 923.261 2703.51 914.196 2692.78 901.986C2682.42 889.776 2677.24 873.681 2677.24 853.701C2677.24 837.421 2682.05 822.621 2691.67 809.301C2701.29 795.611 2714.98 784.881 2732.74 777.111C2750.87 769.341 2771.59 765.456 2794.9 765.456C2829.68 765.456 2857.61 774.336 2878.7 792.096C2900.16 809.486 2911.63 833.351 2913.11 863.691H2849.84C2848.73 850.001 2843.18 839.086 2833.19 830.946C2823.2 822.806 2809.7 818.736 2792.68 818.736C2776.03 818.736 2763.26 821.881 2754.38 828.171C2745.5 834.461 2741.06 842.786 2741.06 853.146C2741.06 861.286 2744.02 868.131 2749.94 873.681C2755.86 879.231 2763.08 883.671 2771.59 887.001C2780.1 889.961 2792.68 893.846 2809.33 898.656C2831.53 904.576 2849.66 910.681 2863.72 916.971C2878.15 922.891 2890.54 931.771 2900.9 943.611C2911.26 955.451 2916.63 971.176 2917 990.786C2917 1008.18 2912.19 1023.72 2902.57 1037.41C2892.95 1051.1 2879.26 1061.83 2861.5 1069.6C2844.11 1077.37 2823.57 1081.25 2799.89 1081.25Z" fill="black"/>
<path d="M2039.65 78.275V464H1976.38V295.28H1794.9V464H1731.63V78.275H1794.9V243.665H1976.38V78.275H2039.65ZM2384.35 158.195L2196.76 607.745H2131.27L2193.43 459.005L2072.99 158.195H2143.48L2229.5 391.295L2318.86 158.195H2384.35ZM2481.49 203.15C2492.22 189.09 2506.84 177.25 2525.34 167.63C2543.84 158.01 2564.74 153.2 2588.05 153.2C2614.69 153.2 2638.93 159.86 2660.76 173.18C2682.96 186.13 2700.35 204.445 2712.93 228.125C2725.51 251.805 2731.8 279 2731.8 309.71C2731.8 340.42 2725.51 367.985 2712.93 392.405C2700.35 416.455 2682.96 435.325 2660.76 449.015C2638.93 462.335 2614.69 468.995 2588.05 468.995C2564.74 468.995 2544.02 464.37 2525.89 455.12C2507.76 445.5 2492.96 433.66 2481.49 419.6V609.41H2418.22V158.195H2481.49V203.15ZM2667.42 309.71C2667.42 288.62 2662.98 270.49 2654.1 255.32C2645.59 239.78 2634.12 228.125 2619.69 220.355C2605.63 212.215 2590.46 208.145 2574.18 208.145C2558.27 208.145 2543.1 212.215 2528.67 220.355C2514.61 228.495 2503.14 240.335 2494.26 255.875C2485.75 271.415 2481.49 289.73 2481.49 310.82C2481.49 331.91 2485.75 350.41 2494.26 366.32C2503.14 381.86 2514.61 393.7 2528.67 401.84C2543.1 409.98 2558.27 414.05 2574.18 414.05C2590.46 414.05 2605.63 409.98 2619.69 401.84C2634.12 393.33 2645.59 381.12 2654.1 365.21C2662.98 349.3 2667.42 330.8 2667.42 309.71ZM3060.76 303.605C3060.76 315.075 3060.02 325.435 3058.54 334.685H2824.89C2826.74 359.105 2835.8 378.715 2852.08 393.515C2868.36 408.315 2888.34 415.715 2912.02 415.715C2946.06 415.715 2970.11 401.47 2984.17 372.98H3052.44C3043.19 401.1 3026.35 424.225 3001.93 442.355C2977.88 460.115 2947.91 468.995 2912.02 468.995C2882.79 468.995 2856.52 462.52 2833.21 449.57C2810.27 436.25 2792.14 417.75 2778.82 394.07C2765.87 370.02 2759.4 342.27 2759.4 310.82C2759.4 279.37 2765.69 251.805 2778.27 228.125C2791.22 204.075 2809.16 185.575 2832.1 172.625C2855.41 159.675 2882.05 153.2 2912.02 153.2C2940.88 153.2 2966.6 159.49 2989.17 172.07C3011.74 184.65 3029.31 202.41 3041.89 225.35C3054.47 247.92 3060.76 274.005 3060.76 303.605ZM2994.72 283.625C2994.35 260.315 2986.02 241.63 2969.74 227.57C2953.46 213.51 2933.3 206.48 2909.25 206.48C2887.42 206.48 2868.73 213.51 2853.19 227.57C2837.65 241.26 2828.4 259.945 2825.44 283.625H2994.72ZM3172.42 202.595C3181.67 187.055 3193.88 175.03 3209.05 166.52C3224.59 157.64 3242.91 153.2 3264 153.2V218.69H3247.9C3223.11 218.69 3204.24 224.98 3191.29 237.56C3178.71 250.14 3172.42 271.97 3172.42 303.05V464H3109.15V158.195H3172.42V202.595ZM3340.47 117.68C3329 117.68 3319.38 113.795 3311.61 106.025C3303.84 98.255 3299.96 88.635 3299.96 77.165C3299.96 65.695 3303.84 56.075 3311.61 48.305C3319.38 40.535 3329 36.65 3340.47 36.65C3351.57 36.65 3361.01 40.535 3368.78 48.305C3376.55 56.075 3380.43 65.695 3380.43 77.165C3380.43 88.635 3376.55 98.255 3368.78 106.025C3361.01 113.795 3351.57 117.68 3340.47 117.68ZM3371.55 158.195V464H3308.28V158.195H3371.55ZM3573.39 468.995C3544.53 468.995 3518.44 462.52 3495.13 449.57C3471.82 436.25 3453.51 417.75 3440.19 394.07C3426.87 370.02 3420.21 342.27 3420.21 310.82C3420.21 279.74 3427.05 252.175 3440.74 228.125C3454.43 204.075 3473.12 185.575 3496.8 172.625C3520.48 159.675 3546.93 153.2 3576.16 153.2C3605.39 153.2 3631.85 159.675 3655.53 172.625C3679.21 185.575 3697.89 204.075 3711.58 228.125C3725.27 252.175 3732.12 279.74 3732.12 310.82C3732.12 341.9 3725.09 369.465 3711.03 393.515C3696.97 417.565 3677.73 436.25 3653.31 449.57C3629.26 462.52 3602.62 468.995 3573.39 468.995ZM3573.39 414.05C3589.67 414.05 3604.84 410.165 3618.9 402.395C3633.33 394.625 3644.98 382.97 3653.86 367.43C3662.74 351.89 3667.18 333.02 3667.18 310.82C3667.18 288.62 3662.93 269.935 3654.42 254.765C3645.91 239.225 3634.62 227.57 3620.56 219.8C3606.5 212.03 3591.33 208.145 3575.05 208.145C3558.77 208.145 3543.6 212.03 3529.54 219.8C3515.85 227.57 3504.94 239.225 3496.8 254.765C3488.66 269.935 3484.59 288.62 3484.59 310.82C3484.59 343.75 3492.91 369.28 3509.56 387.41C3526.58 405.17 3547.86 414.05 3573.39 414.05ZM3935.08 153.2C3959.13 153.2 3980.59 158.195 3999.46 168.185C4018.7 178.175 4033.68 192.975 4044.41 212.585C4055.14 232.195 4060.51 255.875 4060.51 283.625V464H3997.79V293.06C3997.79 265.68 3990.95 244.775 3977.26 230.345C3963.57 215.545 3944.88 208.145 3921.2 208.145C3897.52 208.145 3878.65 215.545 3864.59 230.345C3850.9 244.775 3844.06 265.68 3844.06 293.06V464H3780.79V158.195H3844.06V193.16C3854.42 180.58 3867.55 170.775 3883.46 163.745C3899.74 156.715 3916.95 153.2 3935.08 153.2Z" fill="black"/>
<path d="M864.653 82.7485L864.99 79.3826L1143.34 80.9132L1287.13 323.897L1286.75 324.567L1006.51 325.416L864.653 82.7485Z" fill="#F56835" stroke="black" stroke-width="8.72163"/>
<path d="M431.311 332.289L433.79 328.037H725.161L872.647 581.953H575.025L431.311 332.289Z" fill="#F56835" stroke="black" stroke-width="8.72163"/>
<path d="M1287.63 824.499L1001.09 823.671L1142.7 574.992L1287.63 824.499Z" fill="#F56835" stroke="black" stroke-width="8.72163"/>
<path d="M1006.54 323.428L861.045 75L715.931 323.428L860.448 573.428L1006.54 323.428Z" fill="black"/>
<path d="M860.447 1075L717.5 823.428L1004.96 825L860.447 1075Z" fill="black"/>
<path d="M283.947 1073.43L141 820.282L431.284 323.676L574.553 571.855L283.947 1073.43Z" fill="black"/>
<path d="M1145.91 1070.64H867.853L1004.83 823.653L1287.63 824.495L1287.63 824.502L1145.91 1070.64Z" fill="#D9D9D9" stroke="black" stroke-width="8.72163"/>
<path d="M717.524 819.066L715 819.052L713.731 821.234L570.467 1067.51L291.538 1069.02L577.059 576.229L860.423 577.788L862.945 577.801L864.215 575.622L1010.01 325.412L1286.75 324.57L1002.45 820.624L717.524 819.066Z" fill="#D9D9D9" stroke="black" stroke-width="8.72163"/>
</g>
<defs>
<clipPath id="clip0">
<rect width="4358" height="1150" fill="white"/>
</clipPath>
</defs>
</svg>
