<svg width="40" height="40" viewBox="0 0 40 40" fill="none" xmlns="http://www.w3.org/2000/svg">
<g clip-path="url(#clip0)">
<path fill-rule="evenodd" clip-rule="evenodd" d="M0.34082 0H40.0003V39.6594H0.34082V0ZM30.0418 15.4325C30.0418 22.1528 24.9257 29.9022 15.572 29.9022V29.8983C12.8087 29.9019 10.1026 29.1103 7.77697 27.6178C8.17872 27.6659 8.58295 27.6904 8.98757 27.6912C11.278 27.6935 13.5025 26.9252 15.3033 25.5099C14.2421 25.49 13.2136 25.1389 12.3617 24.5056C11.5098 23.8724 10.8771 22.9888 10.5521 21.9783C11.3142 22.125 12.0997 22.0952 12.8484 21.891C11.6975 21.6585 10.6625 21.0351 9.91886 20.1265C9.17522 19.2178 8.76877 18.08 8.76845 16.9058V16.8414C9.47566 17.2356 10.2673 17.4539 11.0766 17.4779C9.9999 16.7589 9.23768 15.6566 8.94516 14.3953C8.65265 13.1341 8.85183 11.8088 9.50215 10.6892C10.779 12.2602 12.372 13.545 14.1776 14.4604C15.9833 15.3758 17.9613 15.9012 19.9832 16.0026C19.7301 14.9123 19.8434 13.7691 20.3056 12.7497C20.7677 11.7304 21.553 10.8918 22.5397 10.3637C23.5265 9.83557 24.6599 9.64741 25.7644 9.82831C26.8689 10.0092 27.883 10.5491 28.6497 11.3644C29.7886 11.1398 30.8807 10.7224 31.879 10.13C31.4994 11.3077 30.7048 12.3073 29.6432 12.9429C30.6514 12.8237 31.636 12.554 32.5641 12.1427C31.8813 13.1638 31.0222 14.0552 30.0269 14.7751C30.0418 14.9932 30.0418 15.2123 30.0418 15.4324V15.4325Z" fill="black"/>
</g>
<defs>
<clipPath id="clip0">
<rect x="0.34082" width="39.6594" height="39.6594" rx="10" fill="white"/>
</clipPath>
</defs>
</svg>
