<svg width="480" height="377" viewBox="0 0 480 377" fill="none" xmlns="http://www.w3.org/2000/svg">
<path d="M262.5 262.351H217.5V277.343H262.5V262.351Z" fill="#BDBFC3"/>
<path d="M29.915 90.2719H14.9575V105.229H29.915V90.2719Z" fill="#BDBFC3"/>
<path d="M44.9995 59.9658H29.9995V74.9573H44.9995V59.9658Z" fill="#BDBFC3"/>
<path d="M15 59.9658H0V74.9573H15V59.9658Z" fill="#BDBFC3"/>
<path d="M450 67.4617H435V82.4532H450V67.4617Z" fill="#BDBFC3"/>
<path d="M480 67.4617H465V82.4532H480V67.4617Z" fill="#BDBFC3"/>
<path d="M17.7197 30.4419H2.71973V45.4334H17.7197V30.4419Z" fill="#BDBFC3"/>
<path d="M355.088 82.4533H420V67.4618H349.02C343.755 56.7878 336.878 46.811 328.433 37.861C305.4 13.4474 274.223 0 240.653 0C210.908 0 183.068 10.599 161.085 29.983H37.5001V44.9745H146.805C135.945 58.3844 128.175 73.6158 123.923 89.949H37.5001V104.941H121.058C120.105 112.384 119.76 119.969 120.21 127.66L121.62 151.557C124.995 208.967 145.523 262.831 180.24 307.333H180C180 327.999 163.178 344.812 142.5 344.812H78.6376C64.6126 344.812 51.4276 350.269 41.5126 360.178L25.48 376.444C26.7129 376.444 25.8909 376.444 27.9458 376.444H34.5213H41.5126H46.0282L52.1251 370.77C59.2051 363.694 68.6251 359.796 78.6376 359.796H142.5C166.215 359.796 186.285 343.988 192.773 322.37C199.17 329.491 205.935 336.334 213.105 342.848C214.485 344.1 216.285 344.797 218.153 344.797H263.153C265.013 344.797 266.82 344.1 268.2 342.848C275.003 336.664 281.468 330.195 287.573 323.472C294.405 344.527 314.19 359.796 337.5 359.796H401.363C411.383 359.796 420.795 363.694 427.883 370.77L433.569 376.444H439.733H444.254H449.185C450.829 376.444 452.062 376.444 454.528 376.444L438.488 360.171C428.573 350.261 415.388 344.805 401.363 344.805H337.5C317.235 344.805 300.78 328.629 300.12 308.533C335.408 263.798 356.273 209.476 359.685 151.549L360.225 142.419H480V127.428H361.095C361.98 111.882 359.835 96.7177 355.088 82.4533ZM344.715 150.672C340.665 219.483 310.695 282.98 260.228 329.813H221.07C170.603 282.972 140.633 219.476 136.583 150.672L135.173 126.776C134.745 119.385 135.075 112.076 136.125 104.941H176.895L167.198 114.633L177.803 125.232L205.605 97.4448L177.803 69.658L167.198 80.257L176.895 89.949H139.598C144.255 74.5452 152.348 60.2733 163.785 48.1452C183.953 26.7673 211.253 14.9915 240.653 14.9915C270.053 14.9915 297.353 26.7673 317.52 48.1452C323.138 54.0968 327.893 60.6031 331.92 67.4618H280.613L290.31 57.7698L279.705 47.1708L251.895 74.9575L279.698 102.744L290.303 92.1453L280.605 82.4533H339.173C344.565 96.3504 347.025 111.357 346.118 126.783L346.08 127.428H310.605L320.303 117.736L309.698 107.137L281.895 134.924L292.196 142.419H307.813H310.605H345.203L344.715 150.672Z" fill="#BDBFC3"/>
<path d="M448.768 97.0708H433.768V112.062H448.768V97.0708Z" fill="#BDBFC3"/>
<path d="M351.37 213.368V150.274C351.37 143.592 342.713 138.084 332.438 138.084H147.477C137.201 138.084 129.043 143.592 129.043 150.274V213.368C129.043 220.05 137.201 225.557 147.477 225.557H195.99L220.901 213.044C232.11 207.415 247.742 207.415 258.951 213.044L283.862 225.598H332.375C342.713 225.557 351.37 220.05 351.37 213.368ZM313.755 160.358H166.16C162.734 160.358 159.932 158.535 159.932 156.308C159.932 154.081 162.734 152.258 166.16 152.258H313.755C317.18 152.258 319.982 154.081 319.982 156.308C319.982 158.535 317.18 160.358 313.755 160.358Z" fill="#BDBFC3"/>
</svg>
