<svg width="1200" height="1200" viewBox="0 0 1200 1200" fill="none" xmlns="http://www.w3.org/2000/svg">
<path d="M746.653 107.749L746.99 104.383L1025.34 105.913L1169.13 348.897L1168.75 349.567L888.506 350.416L746.653 107.749Z" fill="#F56835" stroke="black" stroke-width="8.72163"/>
<path d="M313.311 357.289L315.79 353.037H607.161L754.647 606.953H457.025L313.311 357.289Z" fill="#F56835" stroke="black" stroke-width="8.72163"/>
<path d="M1169.63 849.499L883.091 848.67L1024.7 599.992L1169.63 849.499Z" fill="#F56835" stroke="black" stroke-width="8.72163"/>
<path d="M888.537 348.428L743.045 100L597.931 348.428L742.448 598.428L888.537 348.428Z" fill="black"/>
<path d="M742.447 1100L599.5 848.427L886.965 850L742.447 1100Z" fill="black"/>
<path d="M165.947 1098.43L23 845.282L313.284 348.676L456.553 596.855L165.947 1098.43Z" fill="black"/>
<path d="M1027.91 1095.64H749.853L886.828 848.653L1169.63 849.495L1169.63 849.502L1027.91 1095.64Z" fill="#D9D9D9" stroke="black" stroke-width="8.72163"/>
<path d="M599.524 844.066L597 844.052L595.731 846.234L452.467 1092.51L173.538 1094.02L459.059 601.229L742.423 602.788L744.945 602.802L746.215 600.622L892.005 350.412L1168.75 349.57L884.445 845.625L599.524 844.066Z" fill="#D9D9D9" stroke="black" stroke-width="8.72163"/>
</svg>
