<svg width="584" height="458" viewBox="0 0 584 458" fill="none" xmlns="http://www.w3.org/2000/svg">
<path d="M319.37 319.189H264.621V337.428H319.37V319.189Z" fill="#C3C3C3"/>
<path d="M36.396 109.829H18.198V128.027H36.396V109.829Z" fill="#C3C3C3"/>
<path d="M54.7492 72.9574H36.4995V91.1968H54.7492V72.9574Z" fill="#C3C3C3"/>
<path d="M18.2497 72.9574H0V91.1968H18.2497V72.9574Z" fill="#C3C3C3"/>
<path d="M547.491 82.077H529.242V100.316H547.491V82.077Z" fill="#C3C3C3"/>
<path d="M583.991 82.077H565.741V100.316H583.991V82.077Z" fill="#C3C3C3"/>
<path d="M21.5583 37.037H3.30859V55.2764H21.5583V37.037Z" fill="#C3C3C3"/>
<path d="M432.016 100.317H510.992V82.0772H424.634C418.229 69.0908 409.861 56.9525 399.587 46.0635C371.564 16.3607 333.632 0 292.789 0C256.6 0 222.729 12.8952 195.984 36.4788H45.6243V54.7181H178.61C165.397 71.0333 155.944 89.5645 150.77 109.436H45.6243V127.676H147.284C146.125 136.731 145.706 145.961 146.253 155.317L147.969 184.391C152.075 254.239 177.05 319.773 219.289 373.916H218.997C218.997 399.059 198.53 419.515 173.372 419.515H95.6741C78.6106 419.515 62.5691 426.154 50.5061 438.21L31 458C32.5 458 31.5 458 34 458H42.0001H50.5061H56L63.4178 451.096C72.0316 442.487 83.4924 437.745 95.6741 437.745H173.372C202.225 437.745 226.643 418.512 234.536 392.21C242.32 400.874 250.55 409.2 259.274 417.125C260.953 418.648 263.143 419.497 265.415 419.497H320.164C322.427 419.497 324.626 418.648 326.305 417.125C334.581 409.602 342.447 401.731 349.874 393.551C358.187 419.168 382.259 437.745 410.619 437.745H488.317C500.508 437.745 511.959 442.487 520.582 451.096L527.5 458H535H540.5H546.5C548.5 458 550 458 553 458L533.485 438.201C521.422 426.145 505.38 419.506 488.317 419.506H410.619C385.963 419.506 365.943 399.825 365.14 375.375C408.073 320.949 433.458 254.859 437.61 184.382L438.267 173.274H583.991V155.035H439.325C440.402 136.12 437.792 117.671 432.016 100.317ZM419.397 183.315C414.469 267.034 378.006 344.286 316.605 401.266H268.964C207.563 344.277 171.1 267.024 166.173 183.315L164.457 154.241C163.937 145.249 164.339 136.358 165.616 127.676H215.219L203.42 139.467L216.323 152.363L250.149 118.556L216.323 84.7493L203.42 97.6445L215.219 109.436H169.841C175.508 90.6953 185.353 73.3314 199.269 58.5758C223.805 32.5664 257.02 18.2394 292.789 18.2394C328.559 18.2394 361.773 32.5664 386.31 58.5758C393.144 65.8168 398.93 73.7327 403.83 82.0772H341.407L353.205 70.2854L340.302 57.3902L306.467 91.1969L340.293 125.004L353.196 112.108L341.397 100.317H412.653C419.214 117.224 422.207 135.482 421.103 154.25L421.057 155.035H377.897L389.695 143.243L376.793 130.348L342.967 164.154L355.5 173.274H374.5H377.897H419.99L419.397 183.315Z" fill="#C3C3C3"/>
<path d="M545.992 118.101H527.742V136.34H545.992V118.101Z" fill="#C3C3C3"/>
<path d="M427.493 259.593V182.83C427.493 174.701 416.961 168 404.46 168H179.427C166.926 168 157 174.701 157 182.83V259.593C157 267.723 166.926 274.424 179.427 274.424H238.451L268.758 259.199C282.397 252.351 301.415 252.351 315.053 259.199L345.36 274.473H404.384C416.961 274.424 427.493 267.723 427.493 259.593ZM381.729 195.099H202.158C197.991 195.099 194.581 192.881 194.581 190.172C194.581 187.462 197.991 185.245 202.158 185.245H381.729C385.896 185.245 389.306 187.462 389.306 190.172C389.306 192.881 385.896 195.099 381.729 195.099Z" fill="#C3C3C3"/>
</svg>
